<svg viewBox="0 0 28 28" fill="none" xmlns="http://www.w3.org/2000/svg">
<mask id="mask0_48_15" style="mask-type:alpha" maskUnits="userSpaceOnUse" x="0" y="0" width="28" height="28">
<rect width="28" height="28" fill="#D9D9D9"/>
</mask>
<g mask="url(#mask0_48_15)">
<path d="M8.16669 24.5C7.52502 24.5 6.97571 24.2715 6.51877 23.8146C6.06183 23.3576 5.83335 22.8083 5.83335 22.1667V7H4.66669V4.66667H10.5V3.5H17.5V4.66667H23.3334V7H22.1667V22.1667C22.1667 22.8083 21.9382 23.3576 21.4813 23.8146C21.0243 24.2715 20.475 24.5 19.8334 24.5H8.16669ZM19.8334 7H8.16669V22.1667H19.8334V7ZM10.5 19.8333H12.8334V9.33333H10.5V19.8333ZM15.1667 19.8333H17.5V9.33333H15.1667V19.8333Z" fill="white"/>
</g>
</svg>
