<svg viewBox="0 0 43 42" fill="none" xmlns="http://www.w3.org/2000/svg">
  <mask id="a" style="mask-type:alpha" maskUnits="userSpaceOnUse" x="0" y="0" width="43" height="42">
    <path fill="#D9D9D9" d="M.227 0h42v42h-42z"/>
  </mask>
  <g mask="url(#a)">
    <path d="M21.32 38.5q-3.282 0-6.147-1.247t-4.988-3.369q-2.121-2.121-3.369-4.987Q5.571 26.03 5.57 22.75h3.5q0 5.119 3.565 8.684Q16.2 35.001 21.32 35q5.118 0 8.684-3.566t3.566-8.684-3.566-8.684q-3.566-3.567-8.684-3.566h-.263l2.713 2.713-2.45 2.537-7-7 7-7 2.45 2.537L21.057 7h.263q3.28 0 6.147 1.247 2.865 1.247 4.987 3.369t3.369 4.987 1.247 6.147-1.247 6.147-3.369 4.987-4.988 3.37Q24.602 38.5 21.32 38.5" fill="#fff"/>
  </g>
</svg>
